<?xml version="1.0" encoding="utf-8"?>
<!-- Generator: Adobe Illustrator 26.0.0, SVG Export Plug-In . SVG Version: 6.00 Build 0)  -->
<svg version="1.1" id="Capa_1" xmlns="http://www.w3.org/2000/svg" xmlns:xlink="http://www.w3.org/1999/xlink" x="0px" y="0px"
	 viewBox="0 0 1366 768" style="enable-background:new 0 0 1366 768;" xml:space="preserve">
<style type="text/css">
	.st0{fill:#FFFFFF;}
	.st1{fill:none;stroke:#000000;stroke-miterlimit:10;}
	.st2{fill:none;}
	.st3{font-family:'MyriadPro-Regular';}
	.st4{font-size:50.5647px;}
</style>
<g>
	<path class="st0" d="M16.9,170.5c-9.1,0-16.4-7.4-16.4-16.4v-34.5c0-9.1,7.4-16.4,16.4-16.4H229c9.1,0,16.4,7.4,16.4,16.4V154
		c0,9.1-7.4,16.4-16.4,16.4H16.9z"/>
	<path d="M229,103.7c8.8,0,15.9,7.1,15.9,15.9V154c0,8.8-7.1,15.9-15.9,15.9H16.9C8.1,170,1,162.8,1,154v-34.5
		c0-8.8,7.1-15.9,15.9-15.9H229 M229,102.7H16.9c-9.3,0-16.9,7.6-16.9,16.9V154c0,9.3,7.6,16.9,16.9,16.9H229
		c9.3,0,16.9-7.6,16.9-16.9v-34.5C245.9,110.2,238.3,102.7,229,102.7L229,102.7z"/>
</g>
<g>
	<path class="st0" d="M16.9,348.1c-9.1,0-16.4-7.4-16.4-16.4v-34.5c0-9.1,7.4-16.4,16.4-16.4H229c9.1,0,16.4,7.4,16.4,16.4v34.5
		c0,9.1-7.4,16.4-16.4,16.4H16.9z"/>
	<path d="M229,281.3c8.8,0,15.9,7.1,15.9,15.9v34.5c0,8.8-7.1,15.9-15.9,15.9H16.9c-8.8,0-15.9-7.1-15.9-15.9v-34.5
		c0-8.8,7.1-15.9,15.9-15.9H229 M229,280.3H16.9c-9.3,0-16.9,7.6-16.9,16.9v34.5c0,9.3,7.6,16.9,16.9,16.9H229
		c9.3,0,16.9-7.6,16.9-16.9v-34.5C245.9,287.8,238.3,280.3,229,280.3L229,280.3z"/>
</g>
<g>
	<path class="st0" d="M1109.8,170.5c-9.1,0-16.4-7.4-16.4-16.4v-34.5c0-9.1,7.4-16.4,16.4-16.4h212.1c9.1,0,16.4,7.4,16.4,16.4V154
		c0,9.1-7.4,16.4-16.4,16.4H1109.8z"/>
	<path d="M1321.8,103.7c8.8,0,15.9,7.1,15.9,15.9V154c0,8.8-7.1,15.9-15.9,15.9h-212.1c-8.8,0-15.9-7.1-15.9-15.9v-34.5
		c0-8.8,7.1-15.9,15.9-15.9H1321.8 M1321.8,102.7h-212.1c-9.3,0-16.9,7.6-16.9,16.9V154c0,9.3,7.6,16.9,16.9,16.9h212.1
		c9.3,0,16.9-7.6,16.9-16.9v-34.5C1338.8,110.2,1331.2,102.7,1321.8,102.7L1321.8,102.7z"/>
</g>
<g>
	<path class="st0" d="M1109.8,348.1c-9.1,0-16.4-7.4-16.4-16.4v-34.5c0-9.1,7.4-16.4,16.4-16.4h212.1c9.1,0,16.4,7.4,16.4,16.4v34.5
		c0,9.1-7.4,16.4-16.4,16.4H1109.8z"/>
	<path d="M1321.8,281.3c8.8,0,15.9,7.1,15.9,15.9v34.5c0,8.8-7.1,15.9-15.9,15.9h-212.1c-8.8,0-15.9-7.1-15.9-15.9v-34.5
		c0-8.8,7.1-15.9,15.9-15.9H1321.8 M1321.8,280.3h-212.1c-9.3,0-16.9,7.6-16.9,16.9v34.5c0,9.3,7.6,16.9,16.9,16.9h212.1
		c9.3,0,16.9-7.6,16.9-16.9v-34.5C1338.8,287.8,1331.2,280.3,1321.8,280.3L1321.8,280.3z"/>
</g>
<path class="st1" d="M1092.9,136.8c0,0-22.8,88.8-120.7,88.8h-97.9"/>
<path class="st1" d="M1092.9,314.4c0,0-22.8-88.8-120.7-88.8h-97.9"/>
<path class="st1" d="M248.2,143.6c0,0,22.8,88.8,120.7,88.8h97.9"/>
<path class="st1" d="M248.2,321.2c0,0,22.8-88.8,120.7-88.8h97.9"/>
<rect x="30.7" y="116.3" class="st2" width="185.6" height="41"/>
<text transform="matrix(1 0 0 1 64.9902 154.769)" class="st3 st4">BOX1</text>
<rect x="30.7" y="293.9" class="st2" width="185.6" height="41"/>
<text transform="matrix(1 0 0 1 64.9902 332.3618)" class="st3 st4">BOX2</text>
<g>
	<path class="st0" d="M426.8,259.3c-9.1,0-16.4-7.4-16.4-16.4v-34.5c0-9.1,7.4-16.4,16.4-16.4h212.1c9.1,0,16.4,7.4,16.4,16.4v34.5
		c0,9.1-7.4,16.4-16.4,16.4H426.8z"/>
	<path d="M638.8,192.5c8.8,0,15.9,7.1,15.9,15.9v34.5c0,8.8-7.1,15.9-15.9,15.9H426.8c-8.8,0-15.9-7.1-15.9-15.9v-34.5
		c0-8.8,7.1-15.9,15.9-15.9H638.8 M638.8,191.5H426.8c-9.3,0-16.9,7.6-16.9,16.9v34.5c0,9.3,7.6,16.9,16.9,16.9h212.1
		c9.3,0,16.9-7.6,16.9-16.9v-34.5C655.7,199,648.2,191.5,638.8,191.5L638.8,191.5z"/>
</g>
<g>
	<path class="st0" d="M672.7,259.3c-9.1,0-16.4-7.4-16.4-16.4v-34.5c0-9.1,7.4-16.4,16.4-16.4h212.1c9.1,0,16.4,7.4,16.4,16.4v34.5
		c0,9.1-7.4,16.4-16.4,16.4H672.7z"/>
	<path d="M884.7,192.5c8.8,0,15.9,7.1,15.9,15.9v34.5c0,8.8-7.1,15.9-15.9,15.9H672.7c-8.8,0-15.9-7.1-15.9-15.9v-34.5
		c0-8.8,7.1-15.9,15.9-15.9H884.7 M884.7,191.5H672.7c-9.3,0-16.9,7.6-16.9,16.9v34.5c0,9.3,7.6,16.9,16.9,16.9h212.1
		c9.3,0,16.9-7.6,16.9-16.9v-34.5C901.6,199,894.1,191.5,884.7,191.5L884.7,191.5z"/>
</g>
<rect x="437.7" y="205.1" class="st2" width="185.6" height="41"/>
<text transform="matrix(1 0 0 1 456.4873 243.5649)" class="st3 st4">ROOT1</text>
<rect x="685.9" y="205.1" class="st2" width="185.6" height="41"/>
<text transform="matrix(1 0 0 1 704.708 243.5649)" class="st3 st4">ROOT2</text>
<rect x="1123" y="116.3" class="st2" width="185.6" height="41"/>
<text transform="matrix(1 0 0 1 1157.292 154.769)" class="st3 st4">BOX3</text>
<rect x="1123" y="293.9" class="st2" width="185.6" height="41"/>
<text transform="matrix(1 0 0 1 1157.292 332.3618)" class="st3 st4">BOX4</text>
</svg>
